<svg xmlns="http://www.w3.org/2000/svg" xmlns:xlink="http://www.w3.org/1999/xlink" width="500" zoomAndPan="magnify" viewBox="0 0 375 225" height="300" preserveAspectRatio="xMidYMid meet" version="1.0"><defs><g/><clipPath id="536747ca85"><path d="M 162 16 L 244 16 L 244 135 L 162 135 Z M 162 16 " clip-rule="nonzero"/></clipPath><clipPath id="e524a1316c"><path d="M 228.273438 16.492188 L 243.367188 25.601562 L 177.550781 134.65625 L 162.457031 125.546875 Z M 228.273438 16.492188 " clip-rule="nonzero"/></clipPath><clipPath id="87065cb666"><path d="M 164 78 L 198 78 L 198 112 L 164 112 Z M 164 78 " clip-rule="nonzero"/></clipPath><clipPath id="4e7167f70a"><path d="M 176.679688 78.027344 L 197.246094 90.441406 L 184.597656 111.394531 L 164.03125 98.984375 Z M 176.679688 78.027344 " clip-rule="nonzero"/></clipPath><clipPath id="38df6d2a88"><path d="M 188 80 L 220 80 L 220 112 L 188 112 Z M 188 80 " clip-rule="nonzero"/></clipPath><clipPath id="ff18cbf668"><path d="M 199.382812 80.265625 L 219.953125 92.675781 L 208.65625 111.394531 L 188.085938 98.984375 Z M 199.382812 80.265625 " clip-rule="nonzero"/></clipPath></defs><g fill="#000000" fill-opacity="1"><g transform="translate(23.514256, 211.271824)"><g><path d="M 14.65625 0 L 12.1875 0 L 12.1875 -6.078125 L 4.40625 -6.078125 L 4.40625 0 L 1.921875 0 L 1.921875 -14.671875 L 4.40625 -14.671875 L 4.40625 -8.296875 L 12.1875 -8.296875 L 12.1875 -14.671875 L 14.65625 -14.671875 Z M 14.65625 0 "/></g></g></g><g fill="#000000" fill-opacity="1"><g transform="translate(48.48382, 211.271824)"><g><path d="M 2.953125 -12.609375 C 4.453125 -14.023438 6.296875 -14.734375 8.484375 -14.734375 C 10.679688 -14.734375 12.523438 -14.023438 14.015625 -12.609375 C 15.515625 -11.191406 16.265625 -9.429688 16.265625 -7.328125 C 16.265625 -5.234375 15.515625 -3.46875 14.015625 -2.03125 C 12.523438 -0.601562 10.679688 0.109375 8.484375 0.109375 C 6.296875 0.109375 4.453125 -0.601562 2.953125 -2.03125 C 1.460938 -3.46875 0.71875 -5.234375 0.71875 -7.328125 C 0.71875 -9.429688 1.460938 -11.191406 2.953125 -12.609375 Z M 8.515625 -12.515625 C 7.054688 -12.515625 5.8125 -12.015625 4.78125 -11.015625 C 3.75 -10.015625 3.234375 -8.785156 3.234375 -7.328125 C 3.234375 -5.878906 3.753906 -4.648438 4.796875 -3.640625 C 5.835938 -2.628906 7.078125 -2.125 8.515625 -2.125 C 9.953125 -2.125 11.179688 -2.628906 12.203125 -3.640625 C 13.222656 -4.648438 13.734375 -5.878906 13.734375 -7.328125 C 13.734375 -8.785156 13.222656 -10.015625 12.203125 -11.015625 C 11.179688 -12.015625 9.953125 -12.515625 8.515625 -12.515625 Z M 8.515625 -12.515625 "/></g></g></g><g fill="#000000" fill-opacity="1"><g transform="translate(73.851697, 211.271824)"><g><path d="M 4.40625 -2.25 L 10.75 -2.25 L 10.75 0 L 1.921875 0 L 1.921875 -14.671875 L 4.40625 -14.671875 Z M 4.40625 -2.25 "/></g></g></g><g fill="#000000" fill-opacity="1"><g transform="translate(93.433434, 211.271824)"><g><path d="M 4.40625 0 L 1.921875 0 L 1.921875 -14.671875 L 4.40625 -14.671875 Z M 4.40625 0 "/></g></g></g><g fill="#000000" fill-opacity="1"><g transform="translate(108.151456, 211.271824)"><g><path d="M 1.921875 -14.671875 L 7.953125 -14.671875 C 10.140625 -14.671875 11.945312 -13.976562 13.375 -12.59375 C 14.8125 -11.21875 15.53125 -9.46875 15.53125 -7.34375 C 15.53125 -5.21875 14.8125 -3.460938 13.375 -2.078125 C 11.9375 -0.691406 10.109375 0 7.890625 0 L 1.921875 0 Z M 4.40625 -12.453125 L 4.40625 -2.21875 L 8.015625 -2.21875 C 9.453125 -2.21875 10.648438 -2.695312 11.609375 -3.65625 C 12.566406 -4.613281 13.046875 -5.832031 13.046875 -7.3125 C 13.046875 -8.800781 12.550781 -10.03125 11.5625 -11 C 10.570312 -11.96875 9.351562 -12.453125 7.90625 -12.453125 Z M 4.40625 -12.453125 "/></g></g></g><g fill="#000000" fill-opacity="1"><g transform="translate(132.785582, 211.271824)"><g><path d="M 11.40625 -3.3125 L 4 -3.3125 L 2.59375 0 L 0.015625 0 L 6.5 -14.671875 L 9.03125 -14.671875 L 15.453125 0 L 12.8125 0 Z M 10.46875 -5.515625 L 7.703125 -12.03125 L 4.921875 -5.515625 Z M 10.46875 -5.515625 "/></g></g></g><g fill="#000000" fill-opacity="1"><g transform="translate(156.644027, 211.271824)"><g><path d="M 7.953125 -4.890625 L 7.953125 0 L 5.5 0 L 5.5 -4.796875 L 0.015625 -14.671875 L 2.515625 -14.671875 L 6.703125 -7.53125 L 10.8125 -14.671875 L 13.34375 -14.671875 Z M 7.953125 -4.890625 "/></g></g></g><g fill="#000000" fill-opacity="1"><g transform="translate(178.385084, 211.271824)"><g/></g></g><g fill="#000000" fill-opacity="1"><g transform="translate(192.18068, 211.271824)"><g><path d="M 4.40625 -2.25 L 10.75 -2.25 L 10.75 0 L 1.921875 0 L 1.921875 -14.671875 L 4.40625 -14.671875 Z M 4.40625 -2.25 "/></g></g></g><g fill="#000000" fill-opacity="1"><g transform="translate(211.762414, 211.271824)"><g><path d="M 4.40625 0 L 1.921875 0 L 1.921875 -14.671875 L 4.40625 -14.671875 Z M 4.40625 0 "/></g></g></g><g fill="#000000" fill-opacity="1"><g transform="translate(226.480428, 211.271824)"><g><path d="M 11.96875 -7.21875 L 14.140625 -7.21875 L 14.140625 -1.796875 C 13.378906 -1.222656 12.484375 -0.757812 11.453125 -0.40625 C 10.429688 -0.0625 9.421875 0.109375 8.421875 0.109375 C 6.253906 0.109375 4.425781 -0.601562 2.9375 -2.03125 C 1.457031 -3.46875 0.71875 -5.234375 0.71875 -7.328125 C 0.71875 -9.429688 1.46875 -11.191406 2.96875 -12.609375 C 4.476562 -14.023438 6.347656 -14.734375 8.578125 -14.734375 C 9.609375 -14.734375 10.625 -14.546875 11.625 -14.171875 C 12.625 -13.804688 13.488281 -13.3125 14.21875 -12.6875 L 12.8125 -10.859375 C 11.613281 -11.984375 10.203125 -12.546875 8.578125 -12.546875 C 7.078125 -12.546875 5.8125 -12.039062 4.78125 -11.03125 C 3.75 -10.019531 3.234375 -8.789062 3.234375 -7.34375 C 3.234375 -5.875 3.753906 -4.632812 4.796875 -3.625 C 5.835938 -2.625 7.101562 -2.125 8.59375 -2.125 C 9.726562 -2.125 10.851562 -2.457031 11.96875 -3.125 Z M 11.96875 -7.21875 "/></g></g></g><g fill="#000000" fill-opacity="1"><g transform="translate(250.569473, 211.271824)"><g><path d="M 14.65625 0 L 12.1875 0 L 12.1875 -6.078125 L 4.40625 -6.078125 L 4.40625 0 L 1.921875 0 L 1.921875 -14.671875 L 4.40625 -14.671875 L 4.40625 -8.296875 L 12.1875 -8.296875 L 12.1875 -14.671875 L 14.65625 -14.671875 Z M 14.65625 0 "/></g></g></g><g fill="#000000" fill-opacity="1"><g transform="translate(275.539031, 211.271824)"><g><path d="M 11.953125 -12.453125 L 7.296875 -12.453125 L 7.296875 0 L 4.828125 0 L 4.828125 -12.453125 L 0.1875 -12.453125 L 0.1875 -14.671875 L 11.953125 -14.671875 Z M 11.953125 -12.453125 "/></g></g></g><g fill="#000000" fill-opacity="1"><g transform="translate(296.064166, 211.271824)"><g><path d="M 4.40625 0 L 1.921875 0 L 1.921875 -14.671875 L 4.40625 -14.671875 Z M 4.40625 0 "/></g></g></g><g fill="#000000" fill-opacity="1"><g transform="translate(310.78218, 211.271824)"><g><path d="M 14.65625 0 L 12.21875 0 L 4.40625 -10.53125 L 4.40625 0 L 1.921875 0 L 1.921875 -14.671875 L 4.359375 -14.671875 L 12.21875 -4.125 L 12.21875 -14.671875 L 14.65625 -14.671875 Z M 14.65625 0 "/></g></g></g><g fill="#000000" fill-opacity="1"><g transform="translate(335.772706, 211.271824)"><g><path d="M 11.96875 -7.21875 L 14.140625 -7.21875 L 14.140625 -1.796875 C 13.378906 -1.222656 12.484375 -0.757812 11.453125 -0.40625 C 10.429688 -0.0625 9.421875 0.109375 8.421875 0.109375 C 6.253906 0.109375 4.425781 -0.601562 2.9375 -2.03125 C 1.457031 -3.46875 0.71875 -5.234375 0.71875 -7.328125 C 0.71875 -9.429688 1.46875 -11.191406 2.96875 -12.609375 C 4.476562 -14.023438 6.347656 -14.734375 8.578125 -14.734375 C 9.609375 -14.734375 10.625 -14.546875 11.625 -14.171875 C 12.625 -13.804688 13.488281 -13.3125 14.21875 -12.6875 L 12.8125 -10.859375 C 11.613281 -11.984375 10.203125 -12.546875 8.578125 -12.546875 C 7.078125 -12.546875 5.8125 -12.039062 4.78125 -11.03125 C 3.75 -10.019531 3.234375 -8.789062 3.234375 -7.34375 C 3.234375 -5.875 3.753906 -4.632812 4.796875 -3.625 C 5.835938 -2.625 7.101562 -2.125 8.59375 -2.125 C 9.726562 -2.125 10.851562 -2.457031 11.96875 -3.125 Z M 11.96875 -7.21875 "/></g></g></g><g fill="#000000" fill-opacity="1"><g transform="translate(135.999045, 100.681161)"><g><path d="M 72.3125 -1.203125 C 72.507812 -1.203125 72.609375 -1 72.609375 -0.59375 C 72.609375 -0.195312 72.507812 0 72.3125 0 C 70.238281 0 68.632812 -0.03125 67.5 -0.09375 L 60.765625 -0.203125 L 53.828125 -0.09375 C 52.691406 -0.03125 51.117188 0 49.109375 0 C 48.910156 0 48.8125 -0.195312 48.8125 -0.59375 C 48.8125 -1 48.910156 -1.203125 49.109375 -1.203125 C 51.785156 -1.203125 53.726562 -1.367188 54.9375 -1.703125 C 56.144531 -2.035156 56.960938 -2.671875 57.390625 -3.609375 C 57.828125 -4.546875 58.046875 -6.054688 58.046875 -8.140625 L 58.046875 -31.734375 L 17.984375 -31.734375 L 17.984375 -8.140625 C 17.984375 -6.054688 18.195312 -4.546875 18.625 -3.609375 C 19.0625 -2.671875 19.882812 -2.035156 21.09375 -1.703125 C 22.300781 -1.367188 24.242188 -1.203125 26.921875 -1.203125 C 27.054688 -1.203125 27.125 -1 27.125 -0.59375 C 27.125 -0.195312 27.054688 0 26.921875 0 C 24.910156 0 23.300781 -0.03125 22.09375 -0.09375 L 15.265625 -0.203125 L 8.640625 -0.09375 C 7.429688 -0.03125 5.753906 0 3.609375 0 C 3.484375 0 3.421875 -0.195312 3.421875 -0.59375 C 3.421875 -1 3.484375 -1.203125 3.609375 -1.203125 C 6.222656 -1.203125 8.148438 -1.367188 9.390625 -1.703125 C 10.628906 -2.035156 11.484375 -2.6875 11.953125 -3.65625 C 12.421875 -4.632812 12.65625 -6.128906 12.65625 -8.140625 L 12.65625 -54.640625 C 12.65625 -56.648438 12.4375 -58.125 12 -59.0625 C 11.5625 -60 10.722656 -60.648438 9.484375 -61.015625 C 8.253906 -61.378906 6.332031 -61.5625 3.71875 -61.5625 C 3.582031 -61.5625 3.515625 -61.757812 3.515625 -62.15625 C 3.515625 -62.5625 3.582031 -62.765625 3.71875 -62.765625 L 8.640625 -62.671875 C 11.453125 -62.535156 13.660156 -62.46875 15.265625 -62.46875 C 17.078125 -62.46875 19.390625 -62.535156 22.203125 -62.671875 L 26.921875 -62.765625 C 27.054688 -62.765625 27.125 -62.5625 27.125 -62.15625 C 27.125 -61.757812 27.054688 -61.5625 26.921875 -61.5625 C 24.304688 -61.5625 22.378906 -61.359375 21.140625 -60.953125 C 19.898438 -60.554688 19.0625 -59.875 18.625 -58.90625 C 18.195312 -57.9375 17.984375 -56.445312 17.984375 -54.4375 L 17.984375 -33.640625 L 58.046875 -33.640625 L 58.046875 -54.4375 C 58.046875 -56.445312 57.828125 -57.9375 57.390625 -58.90625 C 56.960938 -59.875 56.128906 -60.554688 54.890625 -60.953125 C 53.648438 -61.359375 51.722656 -61.5625 49.109375 -61.5625 C 48.910156 -61.5625 48.8125 -61.757812 48.8125 -62.15625 C 48.8125 -62.5625 48.910156 -62.765625 49.109375 -62.765625 L 53.828125 -62.671875 C 56.640625 -62.535156 58.953125 -62.46875 60.765625 -62.46875 C 62.441406 -62.46875 64.6875 -62.535156 67.5 -62.671875 L 72.3125 -62.765625 C 72.507812 -62.765625 72.609375 -62.5625 72.609375 -62.15625 C 72.609375 -61.757812 72.507812 -61.5625 72.3125 -61.5625 C 69.695312 -61.5625 67.769531 -61.378906 66.53125 -61.015625 C 65.300781 -60.648438 64.453125 -60 63.984375 -59.0625 C 63.515625 -58.125 63.28125 -56.648438 63.28125 -54.640625 L 63.28125 -8.140625 C 63.28125 -6.128906 63.515625 -4.632812 63.984375 -3.65625 C 64.453125 -2.6875 65.300781 -2.035156 66.53125 -1.703125 C 67.769531 -1.367188 69.695312 -1.203125 72.3125 -1.203125 Z M 72.3125 -1.203125 "/></g></g></g><g fill="#000000" fill-opacity="1"><g transform="translate(169.718625, 149.731877)"><g><path d="M 81.046875 -1.203125 C 81.253906 -1.203125 81.359375 -1 81.359375 -0.59375 C 81.359375 -0.195312 81.253906 0 81.046875 0 C 78.972656 0 77.332031 -0.03125 76.125 -0.09375 L 69.40625 -0.203125 L 63.171875 -0.09375 C 62.171875 -0.03125 60.765625 0 58.953125 0 C 58.816406 0 58.75 -0.195312 58.75 -0.59375 C 58.75 -1 58.816406 -1.203125 58.953125 -1.203125 C 61.296875 -1.203125 63.019531 -1.382812 64.125 -1.75 C 65.226562 -2.125 65.960938 -2.78125 66.328125 -3.71875 C 66.703125 -4.65625 66.820312 -6.128906 66.6875 -8.140625 L 64.984375 -54.84375 L 41.484375 -0.703125 C 41.347656 -0.429688 41.078125 -0.296875 40.671875 -0.296875 C 40.335938 -0.296875 40.035156 -0.429688 39.765625 -0.703125 L 15.265625 -54.4375 L 15.171875 -54.640625 L 14.359375 -10.453125 C 14.296875 -6.960938 14.863281 -4.546875 16.0625 -3.203125 C 17.269531 -1.867188 19.515625 -1.203125 22.796875 -1.203125 C 22.929688 -1.203125 23 -1 23 -0.59375 C 23 -0.195312 22.929688 0 22.796875 0 C 20.921875 0 19.484375 -0.03125 18.484375 -0.09375 L 13.0625 -0.203125 L 8.140625 -0.09375 C 7.265625 -0.03125 5.957031 0 4.21875 0 C 4.082031 0 4.015625 -0.195312 4.015625 -0.59375 C 4.015625 -1 4.082031 -1.203125 4.21875 -1.203125 C 7.03125 -1.203125 9.019531 -1.890625 10.1875 -3.265625 C 11.363281 -4.640625 11.984375 -7.035156 12.046875 -10.453125 L 13.0625 -58.046875 C 10.976562 -60.390625 8.265625 -61.5625 4.921875 -61.5625 C 4.785156 -61.5625 4.71875 -61.757812 4.71875 -62.15625 C 4.71875 -62.5625 4.785156 -62.765625 4.921875 -62.765625 L 8.34375 -62.671875 C 9.007812 -62.609375 9.878906 -62.578125 10.953125 -62.578125 C 12.015625 -62.578125 12.914062 -62.609375 13.65625 -62.671875 C 14.394531 -62.734375 14.960938 -62.765625 15.359375 -62.765625 C 16.296875 -62.765625 17.03125 -62.445312 17.5625 -61.8125 C 18.101562 -61.175781 18.910156 -59.753906 19.984375 -57.546875 L 42.578125 -8.734375 L 65.078125 -60.265625 C 65.410156 -61.003906 65.863281 -61.601562 66.4375 -62.0625 C 67.007812 -62.53125 67.5625 -62.765625 68.09375 -62.765625 C 68.363281 -62.765625 68.800781 -62.734375 69.40625 -62.671875 C 70.007812 -62.609375 70.84375 -62.578125 71.90625 -62.578125 L 76.4375 -62.671875 C 77.101562 -62.734375 78.140625 -62.765625 79.546875 -62.765625 C 79.679688 -62.765625 79.75 -62.5625 79.75 -62.15625 C 79.75 -61.757812 79.679688 -61.5625 79.546875 -61.5625 C 76.066406 -61.5625 73.601562 -61.109375 72.15625 -60.203125 C 70.71875 -59.304688 70.035156 -57.519531 70.109375 -54.84375 L 72.015625 -8.140625 C 72.078125 -6.054688 72.328125 -4.546875 72.765625 -3.609375 C 73.203125 -2.671875 74.039062 -2.035156 75.28125 -1.703125 C 76.519531 -1.367188 78.441406 -1.203125 81.046875 -1.203125 Z M 81.046875 -1.203125 "/></g></g></g><g clip-path="url(#536747ca85)"><g clip-path="url(#e524a1316c)"><path fill="#ffffff" d="M 228.273438 16.492188 L 243.367188 25.601562 L 177.535156 134.679688 L 162.441406 125.570312 Z M 228.273438 16.492188 " fill-opacity="1" fill-rule="nonzero"/></g></g><g clip-path="url(#87065cb666)"><g clip-path="url(#4e7167f70a)"><path fill="#ffffff" d="M 176.679688 78.027344 L 197.246094 90.441406 L 184.589844 111.410156 L 164.023438 98.996094 Z M 176.679688 78.027344 " fill-opacity="1" fill-rule="nonzero"/></g></g><g clip-path="url(#38df6d2a88)"><g clip-path="url(#ff18cbf668)"><path fill="#ffffff" d="M 199.382812 80.265625 L 219.933594 92.664062 L 208.632812 111.382812 L 188.085938 98.984375 Z M 199.382812 80.265625 " fill-opacity="1" fill-rule="nonzero"/></g></g><path stroke-linecap="butt" transform="matrix(0.431053, -0.613753, 0.613753, 0.431053, 162.610013, 133.678687)" fill="none" stroke-linejoin="miter" d="M -0.000452618 0.998509 L 146.109317 0.997522 " stroke="#000000" stroke-width="2" stroke-opacity="1" stroke-miterlimit="4"/></svg>